{"glyphs":{"0":{"ha":725,"x_min":0,"x_max":0,"o":"m 585 799 b 214 894 585 919 342 951 l 565 124 b 583 185 581 143 583 160 m 157 853 b 139 799 146 838 139 819 l 139 185 b 143 150 139 168 142 156 b 507 85 175 57 389 36 m 68 799 b 654 799 68 1047 654 1047 l 654 179 b 68 179 654 -74 68 -74 "},"1":{"ha":338,"x_min":0,"x_max":0,"o":"m 256 972 l 256 0 l 185 0 l 185 900 l 38 900 l 38 972 "},"2":{"ha":682,"x_min":0,"x_max":0,"o":"m 125 114 b 179 67 125 71 140 67 l 631 67 l 631 0 l 178 0 b 56 114 94 0 56 21 l 56 179 b 474 560 56 410 318 468 b 567 731 535 596 568 656 b 501 865 567 788 540 833 b 229 903 424 929 319 929 b 126 782 176 889 128 842 l 57 782 b 197 958 57 868 117 931 l 199 958 b 546 919 306 993 457 992 b 636 732 599 874 635 811 b 508 504 636 628 599 556 b 125 178 353 415 129 375 "},"3":{"ha":656,"x_min":0,"x_max":0,"o":"m 594 786 b 594 639 594 736 594 688 b 493 486 594 567 550 517 b 594 335 550 457 594 407 b 594 188 594 285 594 236 b 343 0 594 58 456 1 l 54 0 l 54 71 l 336 71 l 336 69 l 342 71 b 524 188 414 71 524 104 b 524 335 524 236 524 285 b 342 456 524 418 414 456 l 336 456 l 336 456 l 54 456 l 54 517 l 336 517 l 336 517 l 342 517 b 524 639 414 517 524 556 b 524 786 524 688 524 736 b 342 903 524 869 414 903 l 336 903 l 336 903 l 54 903 l 54 974 l 343 972 b 594 786 456 972 594 915 "},"4":{"ha":699,"x_min":0,"x_max":0,"o":"m 561 972 l 631 972 b 631 0 631 651 631 319 l 561 0 l 561 249 b 171 249 431 249 301 249 b 71 474 47 250 7 376 l 313 972 l 394 972 l 131 439 b 174 318 101 394 107 318 b 561 318 303 318 432 318 "},"5":{"ha":736,"x_min":0,"x_max":0,"o":"m 150 179 b 254 74 150 125 196 90 b 490 72 319 54 424 54 b 601 179 551 88 600 124 l 601 179 l 601 408 l 601 408 b 469 521 600 469 540 508 b 372 529 440 526 407 529 l 203 529 b 79 657 124 529 79 576 b 79 972 79 758 79 869 l 79 972 l 643 972 l 643 901 l 150 901 b 150 661 150 839 150 724 b 210 599 150 617 164 599 l 368 599 b 482 589 406 599 444 596 b 669 408 583 569 669 510 l 669 408 l 669 179 l 669 179 b 507 6 669 86 597 29 b 236 7 433 -14 311 -14 b 82 179 149 32 81 89 "},"6":{"ha":721,"x_min":0,"x_max":0,"o":"m 503 7 b 232 6 428 -14 306 -14 b 69 179 142 29 71 88 l 69 179 b 69 790 69 382 69 589 b 257 974 69 899 161 956 b 506 965 329 988 433 986 b 657 792 588 942 658 885 l 589 793 b 485 900 589 851 536 885 b 269 906 422 918 333 918 b 139 790 208 894 139 861 b 139 522 139 703 139 610 l 381 522 b 469 514 410 522 440 519 b 657 332 563 497 657 439 l 657 183 b 503 7 657 89 590 32 m 139 453 l 139 328 l 139 179 l 138 179 b 250 72 139 125 188 89 b 485 74 315 56 419 56 b 589 182 538 89 589 122 l 588 332 b 457 447 588 403 515 436 b 383 453 432 451 407 453 "},"7":{"ha":664,"x_min":0,"x_max":0,"o":"m 35 972 l 503 972 b 604 747 628 971 668 844 l 157 0 l 75 0 l 544 782 b 501 903 574 826 567 903 l 35 903 "},"8":{"ha":757,"x_min":0,"x_max":0,"o":"m 672 799 b 672 646 672 750 672 696 b 543 492 672 572 619 515 b 690 342 619 478 690 425 b 690 178 690 293 690 226 b 378 -11 690 51 525 -11 b 64 178 231 -11 64 51 b 64 342 64 226 64 293 b 211 492 64 425 136 478 b 83 646 135 515 83 572 b 83 799 83 696 83 750 b 378 988 83 925 231 988 b 672 799 525 988 672 925 m 378 918 b 153 799 265 918 153 878 b 153 646 153 750 153 696 b 378 522 153 568 265 522 b 601 646 489 522 601 568 b 601 799 601 696 601 750 b 378 918 601 878 489 918 m 378 467 b 135 342 265 467 135 421 b 135 178 135 293 135 226 b 378 58 135 99 265 58 b 621 178 489 58 621 99 b 621 342 621 226 621 293 b 378 467 621 421 489 467 "},"9":{"ha":721,"x_min":0,"x_max":0,"o":"m 217 968 b 489 969 292 989 415 989 b 651 796 579 946 650 889 l 651 796 b 651 182 651 594 651 385 b 464 0 651 75 558 18 b 214 8 390 -14 288 -12 b 63 181 132 32 63 89 l 132 181 b 235 74 132 121 185 88 b 451 68 299 56 388 56 b 582 183 511 79 582 113 b 582 435 582 271 582 347 l 340 435 b 251 442 311 435 281 436 b 63 625 158 460 63 517 l 64 792 b 217 968 63 888 131 943 m 582 504 l 582 649 l 582 796 l 582 796 b 471 903 582 851 533 888 b 236 901 406 921 301 921 b 132 793 183 888 132 854 l 132 625 b 264 510 133 554 204 521 b 338 504 289 506 314 504 "},"b":{"ha":658,"x_min":0,"x_max":0,"o":"m 140 978 l 140 601 b 590 479 254 736 590 686 l 590 172 l 590 172 b 431 -1 590 81 521 22 b 135 76 328 -29 190 -3 l 135 0 l 69 0 b 69 978 69 326 69 653 m 140 203 b 331 56 140 97 243 56 b 413 65 358 56 388 58 b 519 172 472 82 519 118 l 519 172 l 519 482 b 140 492 519 657 140 643 "},"a":{"ha":646,"x_min":0,"x_max":0,"o":"m 478 497 b 461 554 478 518 474 538 b 344 618 438 588 394 608 b 235 618 307 625 274 624 b 107 546 185 610 136 589 l 47 583 b 518 596 129 715 426 722 b 547 492 540 564 547 529 l 547 126 b 615 61 547 75 581 61 l 615 -1 b 490 54 557 -6 511 11 b 288 -18 431 -4 356 -18 b 186 -4 254 -18 219 -12 b 117 368 -3 47 -25 275 b 478 408 203 426 340 435 m 478 344 b 161 318 375 371 240 374 b 206 63 64 250 72 100 b 288 53 231 56 258 53 b 478 169 360 53 478 81 "},"c":{"ha":647,"x_min":0,"x_max":0,"o":"m 586 179 b 428 6 586 88 517 29 l 428 4 b 225 4 363 -12 290 -12 b 67 182 139 28 67 86 l 67 500 b 225 675 67 594 140 651 l 225 675 b 326 689 257 683 292 689 b 428 675 360 689 394 683 b 586 500 517 650 586 593 l 517 500 b 408 608 517 556 469 592 b 326 619 383 615 354 619 b 243 608 297 619 269 615 l 243 608 b 136 499 192 594 136 561 l 136 182 b 243 71 136 119 190 86 b 408 71 294 57 357 57 l 410 71 b 517 179 469 88 517 124 "},"d":{"ha":656,"x_min":0,"x_max":0,"o":"m 588 978 b 588 0 588 653 588 326 l 524 0 l 524 76 b 226 -1 468 -3 329 -29 b 68 172 138 22 68 81 l 68 172 l 68 479 b 518 601 68 686 404 736 l 518 978 m 518 492 b 139 482 518 643 139 657 l 139 172 l 138 172 b 246 65 138 118 185 82 b 328 56 271 58 300 56 b 518 203 415 56 518 97 "},"e":{"ha":644,"x_min":0,"x_max":0,"o":"m 140 321 b 440 353 200 324 347 308 b 413 610 558 408 536 575 b 247 610 360 624 300 624 b 140 503 188 593 140 557 m 140 189 b 157 131 140 167 144 149 b 272 68 181 99 224 76 b 382 68 310 61 344 61 b 511 139 433 75 481 96 l 511 139 l 511 139 l 571 103 b 392 -1 531 38 463 10 b 271 -3 350 -8 313 -10 b 100 89 200 8 136 40 b 69 194 78 121 69 156 l 69 503 b 229 676 69 594 139 651 b 431 676 294 694 365 694 b 474 293 611 622 642 382 b 140 260 376 240 233 260 "},"f":{"ha":401,"x_min":0,"x_max":0,"o":"m 140 0 l 140 618 l 21 618 l 21 682 l 140 682 l 140 783 b 389 978 140 939 261 985 l 389 914 b 211 783 297 911 211 900 l 211 682 b 375 682 265 682 321 682 l 375 618 l 211 618 l 211 0 "},"g":{"ha":667,"x_min":0,"x_max":0,"o":"m 426 203 b 519 306 479 221 519 256 l 519 504 l 519 504 b 413 611 519 558 472 594 b 329 621 386 618 358 621 b 247 611 300 621 272 618 b 140 504 186 594 140 558 l 140 306 b 282 192 140 240 206 203 l 282 192 b 356 189 306 188 331 188 b 426 203 381 192 404 196 m 554 697 l 607 651 l 558 600 b 589 504 578 574 589 542 l 589 504 l 589 306 b 449 136 589 219 529 164 b 361 119 421 128 392 121 b 272 122 332 117 301 118 l 271 122 b 235 129 258 124 246 126 b 224 54 176 129 160 65 b 583 -112 357 32 583 97 l 583 -112 l 583 -137 b 453 -292 583 -224 532 -269 b 340 -306 418 -303 378 -306 b 225 -293 301 -306 263 -303 b 76 -143 143 -275 82 -231 b 82 -76 75 -121 75 -97 l 151 -76 b 147 -139 146 -96 144 -119 b 239 -226 151 -187 190 -211 b 433 -225 303 -246 385 -242 b 513 -137 486 -207 513 -187 l 513 -112 l 513 -112 b 206 -11 513 25 315 -29 b 139 151 103 6 79 101 b 154 163 143 156 149 160 b 69 306 103 193 69 242 l 69 504 b 228 678 69 596 139 654 b 329 692 261 688 296 692 b 431 678 364 692 399 688 b 506 646 458 671 483 660 "},"h":{"ha":657,"x_min":0,"x_max":0,"o":"m 71 0 l 71 978 l 142 978 l 142 628 b 501 650 235 715 403 710 b 590 507 554 619 589 572 b 590 503 590 503 590 503 l 590 0 l 521 0 l 521 503 b 521 506 521 506 521 503 b 465 590 519 543 499 571 b 331 624 429 613 381 622 l 326 624 b 160 560 258 622 192 601 b 142 497 146 540 142 519 l 142 0 "},"j":{"ha":233,"x_min":0,"x_max":0,"o":"m 158 685 l 158 -97 b -75 -296 158 -246 51 -300 l -75 -225 b 89 -99 11 -228 89 -201 b 89 685 89 100 89 485 m 86 981 l 161 981 l 161 857 l 86 857 "},"k":{"ha":646,"x_min":0,"x_max":0,"o":"m 69 0 b 69 978 69 326 69 653 l 139 978 l 139 344 l 504 682 l 597 682 l 597 675 l 282 386 b 589 218 424 415 585 353 b 589 213 589 213 589 214 l 589 0 l 519 0 l 519 213 b 519 215 519 217 519 214 b 157 269 515 356 231 367 b 139 207 143 250 139 231 l 139 0 "},"l":{"ha":276,"x_min":0,"x_max":0,"o":"m 242 -6 b 71 147 128 -12 71 24 l 71 972 l 140 972 l 140 146 b 242 57 140 74 169 57 "},"m":{"ha":1047,"x_min":0,"x_max":0,"o":"m 553 0 b 483 0 529 0 507 0 l 483 503 b 317 628 478 589 397 629 b 139 485 228 625 139 571 l 139 0 l 68 0 l 68 682 l 139 682 l 139 617 b 328 690 190 674 263 690 b 522 592 413 690 493 657 b 726 688 560 657 647 688 b 968 494 847 686 968 625 l 968 0 l 897 0 l 897 496 b 725 624 897 585 811 624 b 553 503 642 624 558 586 "},"n":{"ha":658,"x_min":0,"x_max":0,"o":"m 518 0 l 518 497 b 329 624 518 579 424 624 b 139 486 235 624 139 581 l 139 0 l 68 0 l 68 683 l 139 683 l 139 619 b 328 692 190 675 263 692 b 589 496 457 693 589 632 l 589 0 "},"o":{"ha":651,"x_min":0,"x_max":0,"o":"m 422 76 b 515 181 475 94 515 131 l 515 503 l 515 503 b 408 610 515 557 468 593 b 325 621 382 617 354 621 b 242 610 296 621 268 617 b 135 503 182 593 135 558 l 135 181 b 269 65 135 118 197 78 b 422 76 321 57 374 60 m 585 181 b 444 11 585 94 525 39 b 258 -1 385 -8 321 -11 b 65 181 154 17 65 76 l 65 503 b 224 676 65 594 135 653 b 325 690 257 686 290 690 b 426 676 360 690 394 686 b 585 503 515 653 585 594 l 585 503 "},"p":{"ha":656,"x_min":0,"x_max":0,"o":"m 68 -299 b 68 679 68 28 68 353 l 132 679 l 132 603 b 429 681 188 682 326 710 b 588 507 518 657 588 599 l 588 507 l 588 192 b 138 69 588 -15 251 -65 l 138 -299 m 138 181 b 517 189 138 28 517 14 l 517 507 l 518 507 b 410 614 518 561 471 597 b 328 624 385 621 356 624 b 138 476 240 624 138 582 "},"q":{"ha":653,"x_min":0,"x_max":0,"o":"m 515 -299 l 515 69 b 67 192 403 -65 67 -15 l 67 507 l 67 507 b 225 681 67 599 136 657 b 521 603 328 710 467 682 l 521 679 l 586 679 b 586 -299 586 353 586 28 m 515 476 b 326 624 515 582 414 624 b 243 614 297 624 269 621 b 136 507 183 597 136 561 l 136 507 l 136 189 b 515 181 136 14 515 28 "},"r":{"ha":443,"x_min":0,"x_max":0,"o":"m 69 0 l 69 310 l 69 488 l 69 682 l 138 682 l 138 607 b 426 682 197 692 329 707 l 415 617 b 140 489 324 647 140 600 l 140 0 "},"s":{"ha":618,"x_min":0,"x_max":0,"o":"m 110 169 b 400 74 160 50 315 50 b 508 183 461 90 508 128 b 315 304 510 279 413 292 b 63 496 188 321 61 336 b 222 678 64 592 133 651 b 563 578 332 708 510 696 l 507 542 b 240 610 456 629 328 635 b 132 496 179 592 132 554 b 325 375 131 400 228 388 b 578 183 451 358 579 342 b 418 6 576 89 507 31 b 50 131 297 -29 97 -6 "},"t":{"ha":401,"x_min":0,"x_max":0,"o":"m 206 975 l 206 682 l 371 682 l 371 619 b 206 618 315 619 261 619 l 206 192 b 383 61 206 75 292 64 l 383 -3 b 136 190 257 -10 136 36 l 136 619 l 17 619 l 17 682 l 136 682 l 136 975 "},"u":{"ha":667,"x_min":0,"x_max":0,"o":"m 138 681 l 138 188 b 328 60 138 104 233 60 b 518 197 422 60 518 104 l 518 681 l 588 681 l 588 0 l 518 0 l 518 65 b 329 -8 467 8 394 -7 b 68 188 200 -8 68 51 l 68 681 "},"v":{"ha":644,"x_min":0,"x_max":0,"o":"m 310 -7 l 122 171 b 68 289 76 215 68 242 l 68 681 l 139 681 l 139 289 b 163 229 139 260 142 249 l 324 76 l 485 229 b 510 289 506 249 510 260 l 510 681 l 579 681 l 579 289 b 525 171 579 242 571 215 l 338 -7 "},"w":{"ha":1024,"x_min":0,"x_max":0,"o":"m 294 -7 l 121 171 b 67 289 76 217 67 242 l 67 681 l 138 681 l 138 289 b 161 229 138 260 142 250 l 307 76 l 453 229 b 478 289 474 250 478 260 l 478 289 l 478 681 l 547 681 l 547 289 l 547 289 b 572 229 547 260 551 250 l 718 76 l 864 229 b 888 289 883 250 888 260 l 888 681 l 958 681 l 958 289 b 904 171 958 242 949 217 l 731 -7 l 704 -7 l 513 196 l 321 -7 "},"x":{"ha":639,"x_min":0,"x_max":0,"o":"m 258 340 l 115 476 b 61 594 68 521 61 547 l 61 681 l 131 681 l 131 594 b 156 535 131 565 135 554 l 315 382 l 317 382 l 476 535 b 501 594 499 554 501 565 l 501 681 l 572 681 l 572 594 b 518 476 572 547 564 521 l 374 340 l 518 204 b 572 86 564 160 572 133 l 572 0 l 501 0 l 501 86 b 476 146 501 114 499 126 l 317 299 l 315 299 l 156 146 b 131 86 135 126 131 114 l 131 0 l 61 0 l 61 86 b 115 204 61 133 68 160 "},"y":{"ha":654,"x_min":0,"x_max":0,"o":"m 586 -107 b 429 -283 586 -203 514 -261 b 328 -297 396 -293 361 -297 b 86 -185 240 -297 131 -268 l 86 -185 l 146 -153 b 328 -228 185 -210 263 -228 b 410 -218 356 -228 385 -225 b 517 -107 464 -203 515 -167 l 517 -94 l 517 -83 l 517 53 b 156 31 422 -35 256 -29 b 67 179 101 63 67 114 l 67 681 l 138 681 l 138 181 b 192 90 138 139 157 111 b 326 57 229 68 278 58 l 331 58 b 499 122 400 58 467 79 b 517 185 513 140 517 161 l 517 681 l 586 681 l 586 -94 "},"z":{"ha":599,"x_min":0,"x_max":0,"o":"m 63 681 l 439 681 b 518 483 556 679 610 560 l 139 149 b 175 69 99 111 121 69 l 564 69 l 564 0 l 172 0 b 92 197 56 1 1 119 l 471 532 b 436 611 513 569 489 611 l 63 611 "}," ":{"ha":331,"x_min":0,"x_max":0,"o":""},"@":{"ha":694,"x_min":0,"x_max":0,"o":""},"A":{"ha":742,"x_min":0,"x_max":0,"o":"m 571 938 b 657 794 622 907 657 858 l 658 794 l 658 794 l 658 0 l 589 0 l 589 381 b 139 381 439 381 289 381 b 139 0 139 238 139 143 l 69 0 b 69 794 69 250 69 544 l 69 794 l 69 794 b 156 938 69 858 104 907 b 571 938 257 999 471 999 m 192 879 b 139 794 160 860 139 831 l 139 794 l 139 794 l 139 450 b 589 450 289 450 439 450 l 589 794 l 589 794 l 589 794 b 535 879 589 831 567 860 b 192 879 456 928 269 926 "},"B":{"ha":742,"x_min":0,"x_max":0,"o":"m 138 528 l 399 528 b 526 558 442 528 489 535 b 575 638 557 576 575 603 l 575 796 l 575 796 l 575 796 b 526 872 575 829 556 856 b 400 903 492 893 446 903 l 400 903 l 400 903 l 138 903 m 400 458 l 138 458 l 138 69 l 400 69 l 400 69 l 400 69 b 547 106 454 69 508 82 b 607 197 583 126 607 157 l 607 197 l 607 199 l 607 331 l 607 331 l 607 331 b 547 422 607 371 583 401 l 547 422 b 401 458 508 447 456 458 m 557 496 b 583 482 567 492 575 488 l 583 482 b 675 331 639 449 675 399 l 675 331 l 675 331 l 675 199 l 675 197 l 675 197 b 583 46 675 129 639 79 b 400 0 533 15 467 0 l 400 0 l 400 0 l 68 0 l 69 972 l 400 972 l 400 972 l 400 972 b 561 932 458 972 517 958 b 644 796 611 903 643 857 l 644 796 l 644 796 l 644 635 l 644 635 l 644 635 b 561 499 643 574 611 528 "},"C":{"ha":717,"x_min":0,"x_max":0,"o":"m 658 183 b 504 10 658 92 592 35 b 232 8 429 -11 306 -11 b 69 182 142 32 71 90 l 69 182 l 69 792 l 69 792 b 257 972 71 893 156 953 b 517 961 333 986 444 985 l 517 961 b 658 792 599 933 658 878 l 589 792 b 496 896 589 843 549 878 l 496 896 b 269 904 432 917 336 917 b 139 792 199 890 139 853 l 139 792 l 139 182 l 139 182 b 250 75 139 128 188 92 b 485 76 315 58 419 58 b 589 182 544 93 589 129 "},"D":{"ha":735,"x_min":0,"x_max":0,"o":"m 583 160 b 589 786 593 188 589 668 b 406 904 589 869 478 904 l 400 904 l 400 904 l 399 904 l 140 904 l 140 71 l 397 71 l 397 71 b 583 160 463 71 561 93 m 69 0 b 69 974 69 326 69 649 l 407 974 b 660 786 519 974 660 917 l 660 189 b 397 0 660 56 517 0 "},"E":{"ha":656,"x_min":0,"x_max":0,"o":"m 139 522 l 586 522 l 586 451 l 139 451 b 144 158 139 407 135 186 b 329 71 167 93 264 71 l 329 71 l 586 71 l 586 0 l 329 0 l 329 1 b 69 188 211 0 69 56 l 69 974 b 586 974 242 974 414 974 l 586 904 l 139 904 "},"F":{"ha":639,"x_min":0,"x_max":0,"o":"m 68 974 b 588 974 242 974 414 974 l 588 904 b 139 904 438 904 289 904 b 139 517 139 775 139 646 l 518 517 l 518 446 l 139 446 b 138 0 139 418 138 75 l 68 0 b 68 974 68 325 68 649 "},"G":{"ha":732,"x_min":0,"x_max":0,"o":"m 658 175 b 504 3 658 85 590 28 b 232 1 428 -19 308 -19 b 69 175 142 25 71 82 l 69 175 l 69 797 l 69 799 b 257 979 71 900 156 960 b 517 967 333 993 444 992 l 517 967 b 658 797 599 940 658 883 l 589 799 b 496 901 589 849 549 883 l 496 901 b 269 911 432 924 336 924 b 139 797 199 897 139 860 l 139 797 l 139 175 l 139 175 b 250 68 139 119 188 83 b 485 69 315 50 421 51 b 589 175 544 86 589 121 l 589 417 l 397 417 l 397 481 l 658 481 "},"H":{"ha":714,"x_min":0,"x_max":0,"o":"m 138 450 b 138 0 138 307 138 143 l 69 0 l 69 974 l 138 974 l 138 519 l 568 519 l 568 974 l 638 974 l 638 0 l 568 0 l 568 450 "},"I":{"ha":249,"x_min":0,"x_max":0,"o":"m 157 974 l 157 0 l 88 0 b 88 974 88 325 88 649 "},"J":{"ha":575,"x_min":0,"x_max":0,"o":"m 501 972 l 501 176 b 39 175 501 -79 38 -69 l 108 174 b 431 167 107 14 431 14 b 429 972 431 428 432 713 "},"K":{"ha":738,"x_min":0,"x_max":0,"o":"m 428 481 b 671 301 543 481 671 447 l 671 0 l 601 0 b 601 301 601 261 601 42 b 428 421 601 396 507 421 b 142 421 338 421 233 421 l 142 0 l 74 0 b 74 972 74 321 74 651 l 142 972 b 142 481 142 808 142 644 l 165 481 l 615 972 l 700 972 l 700 958 l 250 481 "},"L":{"ha":569,"x_min":0,"x_max":0,"o":"m 535 71 l 535 0 l 333 0 b 69 208 200 0 69 54 b 69 972 69 463 69 718 l 140 972 l 140 208 b 333 71 140 104 249 71 "},"M":{"ha":917,"x_min":0,"x_max":0,"o":"m 747 972 b 833 972 776 972 804 972 l 833 0 l 763 0 l 763 779 l 772 878 l 768 878 l 739 785 l 481 233 l 424 233 l 165 785 l 136 878 l 132 878 l 142 779 l 142 0 l 71 0 l 71 972 b 157 972 99 972 128 972 l 451 325 "},"N":{"ha":736,"x_min":0,"x_max":0,"o":"m 658 0 b 585 0 633 0 610 0 l 167 785 l 132 878 l 126 878 l 139 779 l 139 0 l 69 0 l 69 972 b 144 972 94 972 119 972 l 563 188 l 597 96 l 601 96 l 589 194 l 589 972 l 658 972 "},"O":{"ha":729,"x_min":0,"x_max":0,"o":"m 582 149 b 586 185 585 154 586 167 l 588 797 b 140 797 588 961 140 961 l 142 185 b 146 149 142 167 143 154 b 582 149 188 28 540 28 m 71 797 b 657 797 71 1046 657 1046 l 657 178 b 71 178 657 -75 71 -75 "},"P":{"ha":639,"x_min":0,"x_max":0,"o":"m 331 444 b 521 563 425 444 521 483 l 521 563 l 521 786 b 332 904 521 875 403 903 l 332 904 l 139 904 l 139 444 m 139 375 l 139 0 l 71 0 b 71 972 71 321 71 651 l 332 972 l 332 972 b 589 786 444 972 589 917 l 589 563 l 589 563 b 331 375 589 438 460 375 "},"Q":{"ha":731,"x_min":0,"x_max":0,"o":"m 439 189 l 532 190 l 582 142 b 589 186 588 156 589 171 l 589 796 b 142 796 589 960 142 957 l 142 186 b 146 151 142 169 144 157 b 531 93 185 40 446 46 m 71 796 b 658 796 71 1044 658 1043 l 658 181 b 632 90 658 144 649 115 l 717 -7 l 622 -7 l 581 42 b 71 181 444 -47 71 -29 "},"R":{"ha":651,"x_min":0,"x_max":0,"o":"m 519 786 b 331 911 519 875 401 911 l 138 911 l 138 435 l 325 435 b 519 554 400 435 519 458 m 138 372 l 138 0 l 69 0 b 69 972 69 321 69 651 l 331 972 b 589 786 364 972 589 969 l 589 554 b 457 400 589 479 532 415 b 589 249 529 383 589 326 l 589 0 l 519 0 l 519 249 b 325 372 519 343 396 372 "},"S":{"ha":650,"x_min":0,"x_max":0,"o":"m 504 804 b 153 864 506 943 243 949 b 138 621 94 808 82 686 b 319 536 178 572 253 553 b 613 235 483 494 614 424 b 522 47 611 156 575 92 b 174 7 433 -26 281 -28 l 174 7 b 33 185 93 35 32 99 l 101 183 b 206 63 104 125 153 78 b 478 100 296 38 400 36 b 543 235 517 132 542 178 b 301 474 544 383 417 444 b 90 571 218 494 139 519 b 106 914 6 663 19 833 b 574 803 231 1032 575 1007 "},"T":{"ha":668,"x_min":0,"x_max":0,"o":"m 31 972 l 629 972 l 629 911 l 365 911 l 363 0 l 292 0 l 294 911 l 31 911 "},"U":{"ha":732,"x_min":0,"x_max":0,"o":"m 349 61 l 369 61 b 535 92 433 61 497 68 b 589 182 568 111 589 143 l 589 972 l 658 972 l 658 182 b 571 35 658 118 625 68 b 371 -8 524 6 447 -10 l 357 -8 b 157 35 281 -10 204 6 b 69 182 103 68 69 118 l 69 972 l 139 972 l 139 182 b 193 94 139 143 160 114 b 349 61 228 72 288 61 "},"V":{"ha":721,"x_min":0,"x_max":0,"o":"m 346 -11 l 122 186 b 69 313 81 224 69 260 l 69 974 l 140 974 l 140 311 b 168 240 140 275 140 267 l 361 68 l 554 240 b 581 311 581 267 581 275 l 581 974 l 651 974 l 651 313 b 599 186 651 260 640 224 l 375 -11 "},"W":{"ha":1151,"x_min":0,"x_max":0,"o":"m 325 -12 l 121 185 b 69 311 82 224 69 258 l 69 972 l 139 972 l 139 310 b 167 239 139 274 140 265 l 340 67 l 513 239 b 540 310 540 265 540 274 l 540 311 l 540 972 l 611 972 l 611 311 l 611 310 b 638 239 611 274 611 265 l 811 67 l 985 239 b 1011 310 1011 265 1011 274 l 1011 972 l 1082 972 l 1082 311 b 1029 185 1082 258 1069 224 l 826 -12 l 796 -12 b 575 213 719 61 643 131 b 354 -12 508 131 432 61 "},"X":{"ha":703,"x_min":0,"x_max":0,"o":"m 299 485 l 117 646 b 65 772 75 682 65 719 l 65 972 l 135 972 l 135 771 b 163 700 135 735 135 726 l 356 528 l 549 700 b 575 771 575 726 575 735 l 575 972 l 646 972 l 646 772 b 593 646 646 719 635 682 l 413 485 l 593 325 b 646 199 635 289 646 251 l 646 0 l 575 0 l 575 200 b 549 271 575 236 575 244 l 356 443 l 163 271 b 135 200 135 244 135 236 l 135 0 l 65 0 l 65 199 b 117 325 65 251 75 289 "},"Y":{"ha":674,"x_min":0,"x_max":0,"o":"m 339 444 l 517 631 b 553 711 542 656 553 674 l 553 972 l 624 972 l 624 713 b 571 586 624 660 610 625 l 374 381 l 374 1 l 304 1 l 304 381 l 107 586 b 54 713 68 625 54 660 l 54 972 l 125 972 l 125 711 b 161 631 125 674 136 656 "},"Z":{"ha":644,"x_min":0,"x_max":0,"o":"m 60 972 l 481 972 b 596 854 564 972 596 944 b 596 793 596 838 596 810 b 107 181 592 517 114 454 l 107 131 b 157 71 107 88 122 71 l 597 71 l 597 1 l 157 1 b 43 131 79 1 43 38 l 43 182 b 532 793 43 468 532 592 l 532 854 b 479 907 532 894 515 907 l 60 907 "},"!":{"ha":256,"x_min":0,"x_max":0,"o":"m 167 0 l 88 0 l 88 100 l 167 100 m 165 211 l 92 211 l 92 975 l 165 975 "},"\"":{"ha":311,"x_min":0,"x_max":0,"o":"m 119 744 l 53 744 l 53 975 l 119 975 m 247 744 l 181 744 l 181 975 l 247 975 "},"'":{"ha":217,"x_min":0,"x_max":0,"o":"m 147 744 l 81 744 l 81 975 l 147 975 "},"-":{"ha":440,"x_min":0,"x_max":0,"o":"m 358 415 l 358 346 l 60 346 l 60 415 "},"+":{"ha":576,"x_min":0,"x_max":0,"o":"m 324 432 l 513 432 l 513 365 l 324 365 l 324 176 l 257 176 l 257 365 l 72 365 l 72 432 l 257 432 l 257 617 l 324 617 "},"?":{"ha":671,"x_min":0,"x_max":0,"o":"m 347 160 l 278 160 l 278 251 b 460 557 278 474 296 460 b 553 733 522 594 554 657 b 488 868 553 789 526 836 b 215 906 411 932 306 931 b 113 783 163 890 115 843 l 43 783 b 185 960 43 869 104 933 l 185 960 b 532 921 292 996 444 993 b 622 733 586 876 621 813 b 494 503 624 631 585 554 b 347 250 340 414 351 447 m 274 81 l 350 81 l 350 -1 l 274 -1 "},"(":{"ha":310,"x_min":0,"x_max":0,"o":"m 196 -165 b 196 1040 67 96 67 779 l 265 1040 b 265 -165 136 779 136 96 "},")":{"ha":332,"x_min":0,"x_max":0,"o":"m 56 -165 b 56 1040 185 96 185 779 l 125 1040 b 125 -165 254 779 254 96 "},"=":{"ha":682,"x_min":0,"x_max":0,"o":"m 568 415 l 568 346 l 83 346 l 83 415 m 568 615 l 568 546 l 83 546 l 83 615 "},",":{"ha":311,"x_min":0,"x_max":0,"o":"m 111 96 l 194 96 l 194 3 b 119 -71 194 -61 158 -75 l 119 -40 b 142 3 135 -42 147 -18 l 111 3 "},".":{"ha":285,"x_min":0,"x_max":0,"o":"m 93 93 l 176 93 l 176 -1 l 93 -1 "},":":{"ha":299,"x_min":0,"x_max":0,"o":"m 93 93 l 176 93 l 176 -1 l 93 -1 m 93 600 l 176 600 l 176 506 l 93 506 "},";":{"ha":274,"x_min":0,"x_max":0,"o":"m 93 600 l 176 600 l 176 506 l 93 506 m 92 94 l 175 94 l 175 1 b 100 -72 175 -62 139 -76 l 100 -42 b 122 1 115 -43 128 -19 l 92 1 "},"`":{"ha":256,"x_min":0,"x_max":0,"o":"m 47 1085 l 138 1085 l 178 964 l 117 964 l 47 1075 "},"ˆ":{"ha":440,"x_min":0,"x_max":0,"o":"m 169 964 l 100 964 l 183 1079 l 272 1079 l 354 964 l 286 964 l 228 1029 "},"´":{"ha":279,"x_min":0,"x_max":0,"o":"m 215 1075 l 146 964 l 85 964 l 125 1085 l 215 1085 "},"¸":{"ha":379,"x_min":0,"x_max":0,"o":"m 111 -115 l 158 -10 l 211 -10 l 179 -83 b 308 -171 272 -79 310 -129 b 69 -221 304 -272 124 -299 l 108 -187 b 239 -168 142 -224 239 -218 b 111 -124 239 -118 149 -125 "},"˜":{"ha":406,"x_min":0,"x_max":0,"o":"m 63 899 b 144 975 69 936 107 972 b 253 933 196 981 226 931 b 285 964 271 935 281 946 l 328 946 b 254 881 321 908 293 883 b 150 924 206 878 182 925 b 106 885 129 922 110 906 "},"¨":{"ha":494,"x_min":0,"x_max":0,"o":"m 89 979 l 171 979 l 171 892 l 89 892 m 294 979 l 376 979 l 376 892 l 294 892 "},"˚":{"ha":247,"x_min":0,"x_max":0,"o":"m 35 921 b 108 996 35 963 67 996 b 183 921 150 996 183 963 b 108 847 183 879 150 847 b 35 921 67 847 35 879 m 79 919 b 110 890 79 903 92 890 b 140 919 126 890 140 903 b 110 951 140 938 126 951 b 79 919 92 951 79 938 "},"ˇ":{"ha":343,"x_min":0,"x_max":0,"o":"m 219 1039 l 289 1039 l 206 924 l 117 924 l 35 1039 l 103 1039 l 161 974 "},"€":{"ha":725,"x_min":0,"x_max":0,"o":"m 658 183 b 504 10 658 92 592 35 b 232 8 429 -11 306 -11 b 69 182 142 32 71 90 l 69 374 l 3 374 l 3 436 l 69 436 l 69 508 l 3 508 l 3 571 l 69 571 l 69 792 b 257 972 71 893 156 953 b 517 961 333 986 444 985 b 658 792 599 933 658 878 l 589 792 b 496 896 589 843 549 878 b 269 904 432 917 336 917 b 139 792 199 890 139 853 l 139 571 l 344 571 l 344 508 l 139 508 l 139 436 l 344 436 l 344 374 l 139 374 l 139 182 b 250 75 139 128 188 92 b 485 76 315 58 419 58 b 589 182 544 93 589 129 "},"ƒ":{"ha":524,"x_min":0,"x_max":0,"o":"m 279 618 l 190 -17 b -72 -211 168 -172 53 -218 l -62 -147 b 119 -17 28 -144 103 -133 l 208 618 l 89 618 l 99 682 l 218 682 l 232 783 b 507 978 254 939 381 985 l 499 914 b 303 783 407 911 319 900 l 289 682 l 453 682 l 443 618 "},"‚":{"ha":322,"x_min":0,"x_max":0,"o":"m 111 96 l 194 96 l 194 3 b 119 -71 194 -61 158 -75 l 119 -40 b 142 3 135 -42 147 -18 l 111 3 "},"„":{"ha":446,"x_min":0,"x_max":0,"o":"m 111 96 l 194 96 l 194 3 b 119 -71 194 -61 158 -75 l 119 -40 b 142 3 135 -42 147 -18 l 111 3 m 267 96 l 350 96 l 350 3 b 275 -71 350 -61 314 -75 l 275 -40 b 297 3 290 -42 303 -18 l 267 3 "},"…":{"ha":717,"x_min":0,"x_max":0,"o":"m 93 93 l 176 93 l 176 -1 l 93 -1 m 319 93 l 403 93 l 403 -1 l 319 -1 m 549 93 l 632 93 l 632 -1 l 549 -1 "},"Š":{"ha":650,"x_min":0,"x_max":0,"o":"m 574 803 b 106 914 575 1007 231 1032 b 90 571 19 833 6 663 b 301 474 139 519 218 494 b 543 235 417 444 544 383 b 478 100 542 178 517 132 b 206 63 400 36 296 38 b 101 183 153 78 104 125 l 33 185 b 174 7 32 99 93 35 l 174 7 b 522 47 281 -28 433 -26 b 613 235 575 92 611 156 b 319 536 614 424 483 494 b 138 621 253 553 178 572 b 153 864 82 686 94 808 b 504 804 243 949 506 943 m 383 1136 l 458 1136 l 368 1039 l 269 1039 l 179 1136 l 254 1136 l 318 1081 "},"š":{"ha":618,"x_min":0,"x_max":0,"o":"m 50 131 b 418 6 97 -6 297 -29 b 578 183 507 31 576 89 b 325 375 579 342 451 358 b 132 496 228 388 131 400 b 240 610 132 554 179 592 b 507 542 328 635 456 629 l 563 578 b 222 678 510 696 332 708 b 63 496 133 651 64 592 b 315 304 61 336 188 321 b 508 183 413 292 510 279 b 400 74 508 128 461 90 b 110 169 315 50 160 50 m 383 883 l 458 883 l 368 774 l 272 774 l 183 883 l 257 883 l 321 821 "},"Ž":{"ha":644,"x_min":0,"x_max":0,"o":"m 60 907 l 479 907 b 532 854 515 907 532 894 l 532 793 b 43 182 532 592 43 468 l 43 131 b 157 1 43 38 79 1 l 597 1 l 597 71 l 157 71 b 107 131 122 71 107 88 l 107 181 b 596 793 114 454 592 517 b 596 854 596 810 596 838 b 481 972 596 944 564 972 l 60 972 m 394 1136 l 472 1136 l 379 1042 l 282 1042 l 192 1136 l 267 1136 l 331 1082 "},"ž":{"ha":599,"x_min":0,"x_max":0,"o":"m 63 611 l 436 611 b 471 532 489 611 513 569 l 92 197 b 172 0 1 119 56 1 l 564 0 l 564 69 l 175 69 b 139 149 121 69 99 111 l 518 483 b 439 681 610 560 556 679 l 63 681 m 375 861 l 447 861 l 361 764 l 271 764 l 188 861 l 257 861 l 317 806 "},"Œ":{"ha":1165,"x_min":0,"x_max":0,"o":"m 656 522 l 1103 522 l 1103 451 l 656 451 b 661 158 656 407 651 186 b 846 71 683 93 781 71 l 1103 71 l 1103 0 l 846 0 b 624 94 765 0 672 25 b 71 178 513 -68 71 -37 l 71 797 b 586 942 71 983 419 1033 l 586 974 l 1103 974 l 1103 904 l 656 904 m 142 185 b 146 149 142 167 143 154 b 582 149 188 28 540 28 b 586 185 585 154 586 167 l 586 867 b 140 797 490 961 140 938 "},"œ":{"ha":1081,"x_min":0,"x_max":0,"o":"m 585 181 b 603 131 586 161 592 146 b 718 68 626 99 669 76 b 828 68 756 61 790 61 b 957 139 879 75 926 96 l 1017 103 b 838 -1 976 38 908 10 b 717 -3 796 -8 758 -10 b 551 100 649 7 585 40 b 444 11 528 44 488 26 b 258 -1 385 -8 321 -11 b 65 181 154 17 65 76 l 65 503 b 224 676 65 594 135 653 b 325 690 257 686 290 690 b 426 676 360 690 394 686 b 550 586 476 663 522 633 b 675 676 576 631 624 663 b 876 676 740 694 811 694 b 919 293 1057 622 1088 382 b 585 260 822 240 678 260 m 422 76 b 515 181 475 94 515 131 l 515 503 b 408 610 515 557 468 593 b 325 621 382 617 354 621 b 242 610 296 621 268 617 b 135 503 182 593 135 558 l 135 181 b 269 65 135 118 197 78 b 422 76 321 57 374 60 m 585 321 b 886 353 644 324 793 308 b 858 610 1004 408 982 575 b 693 610 806 624 746 624 b 585 507 635 593 586 558 l 585 503 "},"Ÿ":{"ha":674,"x_min":0,"x_max":0,"o":"m 339 444 l 517 631 b 553 711 542 656 553 674 l 553 972 l 624 972 l 624 713 b 571 586 624 660 610 625 l 374 381 l 374 1 l 304 1 l 304 381 l 107 586 b 54 713 68 625 54 660 l 54 972 l 125 972 l 125 711 b 161 631 125 674 136 656 m 201 1113 l 281 1113 l 281 1036 l 201 1036 m 399 1113 l 476 1113 l 476 1036 l 399 1036 "},"¡":{"ha":256,"x_min":0,"x_max":0,"o":"m 86 701 l 165 701 l 165 601 l 86 601 m 88 490 l 161 490 l 161 -274 l 88 -274 "},"¢":{"ha":647,"x_min":0,"x_max":0,"o":"m 297 779 l 363 779 l 363 686 b 428 675 383 685 406 681 b 586 500 517 650 586 593 l 517 500 b 408 608 517 556 469 592 b 326 619 383 615 354 619 b 243 608 297 619 269 615 b 136 499 192 594 136 561 l 136 182 b 243 71 136 119 190 86 b 408 71 294 57 357 57 l 410 71 b 517 179 469 88 517 124 l 586 179 b 428 6 586 88 517 29 l 428 4 b 363 -7 406 -1 385 -4 l 363 -101 l 297 -101 l 297 -7 b 225 4 272 -6 249 -1 b 67 182 139 28 67 86 l 67 500 b 225 675 67 594 140 651 b 297 688 247 681 272 686 "},"¿":{"ha":671,"x_min":0,"x_max":0,"o":"m 324 551 l 393 551 l 393 460 b 211 154 393 238 375 251 b 118 -22 149 117 117 54 b 183 -157 118 -78 144 -125 b 456 -194 260 -221 365 -219 b 558 -72 508 -179 556 -132 l 628 -72 b 486 -249 628 -158 567 -222 l 486 -249 b 139 -210 379 -285 226 -282 b 49 -22 85 -165 50 -101 b 176 208 47 81 86 157 b 324 461 331 297 319 264 m 397 631 l 321 631 l 321 713 l 397 713 "},"À":{"ha":742,"x_min":0,"x_max":0,"o":"m 571 938 b 657 794 622 907 657 858 l 658 794 l 658 794 l 658 0 l 589 0 l 589 381 b 139 381 439 381 289 381 b 139 0 139 238 139 143 l 69 0 b 69 794 69 250 69 544 l 69 794 l 69 794 b 156 938 69 858 104 907 b 571 938 257 999 471 999 m 192 879 b 139 794 160 860 139 831 l 139 794 l 139 794 l 139 450 b 589 450 289 450 439 450 l 589 794 l 589 794 l 589 794 b 535 879 589 831 567 860 b 192 879 456 928 269 926 m 264 1146 l 354 1146 l 394 1038 l 333 1038 l 264 1138 "},"Á":{"ha":742,"x_min":0,"x_max":0,"o":"m 571 938 b 156 938 471 999 257 999 b 69 794 104 907 69 858 l 69 794 l 69 794 b 69 0 69 544 69 250 l 139 0 b 139 381 139 143 139 238 b 589 381 289 381 439 381 l 589 0 l 658 0 l 658 794 l 658 794 l 657 794 b 571 938 657 858 622 907 m 192 879 b 535 879 269 926 456 928 b 589 794 567 860 589 831 l 589 794 l 589 794 l 589 450 b 139 450 439 450 289 450 l 139 794 l 139 794 l 139 794 b 192 879 139 831 160 860 m 461 1135 l 388 1042 l 322 1042 l 365 1142 l 461 1142 "},"Â":{"ha":742,"x_min":0,"x_max":0,"o":"m 311 1036 l 240 1036 l 325 1132 l 414 1132 l 496 1036 l 428 1036 l 369 1085 m 571 938 b 156 938 471 999 257 999 b 69 794 104 907 69 858 l 69 794 l 69 794 b 69 0 69 544 69 250 l 139 0 b 139 381 139 143 139 238 b 589 381 289 381 439 381 l 589 0 l 658 0 l 658 794 l 658 794 l 657 794 b 571 938 657 858 622 907 m 192 879 b 535 879 269 926 456 928 b 589 794 567 860 589 831 l 589 794 l 589 794 l 589 450 b 139 450 439 450 289 450 l 139 794 l 139 794 l 139 794 b 192 879 139 831 160 860 "},"Ã":{"ha":742,"x_min":0,"x_max":0,"o":"m 571 938 b 657 794 622 907 657 858 l 658 794 l 658 794 l 658 0 l 589 0 l 589 381 b 139 381 439 381 289 381 b 139 0 139 238 139 143 l 69 0 b 69 794 69 250 69 544 l 69 794 l 69 794 b 156 938 69 858 104 907 b 571 938 257 999 471 999 m 192 879 b 139 794 160 860 139 831 l 139 794 l 139 794 l 139 450 b 589 450 289 450 439 450 l 589 794 l 589 794 l 589 794 b 535 879 589 831 567 860 b 192 879 456 928 269 926 m 233 1054 b 315 1131 240 1092 278 1128 b 424 1089 367 1136 397 1086 b 456 1119 442 1090 451 1101 l 499 1101 b 425 1036 492 1064 464 1039 b 321 1079 376 1033 353 1081 b 276 1040 300 1078 281 1061 "},"Ä":{"ha":742,"x_min":0,"x_max":0,"o":"m 571 938 b 657 794 622 907 657 858 l 658 794 l 658 794 l 658 0 l 589 0 l 589 381 b 139 381 439 381 289 381 b 139 0 139 238 139 143 l 69 0 b 69 794 69 250 69 544 l 69 794 l 69 794 b 156 938 69 858 104 907 b 571 938 257 999 471 999 m 192 879 b 139 794 160 860 139 831 l 139 794 l 139 794 l 139 450 b 589 450 289 450 439 450 l 589 794 l 589 794 l 589 794 b 535 879 589 831 567 860 b 192 879 456 928 269 926 m 224 1115 l 307 1115 l 307 1039 l 224 1039 m 433 1115 l 518 1115 l 518 1039 l 433 1039 "},"Å":{"ha":742,"x_min":0,"x_max":0,"o":"m 571 938 b 156 938 471 999 257 999 b 69 794 104 907 69 858 l 69 794 l 69 794 b 69 0 69 544 69 250 l 139 0 b 139 381 139 143 139 238 b 589 381 289 381 439 381 l 589 0 l 658 0 l 658 794 l 658 794 l 657 794 b 571 938 657 858 622 907 m 192 879 b 535 879 269 926 456 928 b 589 794 567 860 589 831 l 589 794 l 589 794 l 589 450 b 139 450 439 450 289 450 l 139 794 l 139 794 l 139 794 b 192 879 139 831 160 860 m 282 1090 b 364 1167 282 1132 317 1167 b 447 1090 410 1167 447 1132 b 364 1014 447 1047 410 1014 b 282 1090 317 1014 282 1047 m 331 1089 b 365 1058 331 1071 344 1058 b 399 1089 383 1058 399 1071 b 365 1121 399 1107 383 1121 b 331 1089 344 1121 331 1107 "},"Ç":{"ha":717,"x_min":0,"x_max":0,"o":"m 310 -81 l 343 -6 b 232 8 301 -4 263 0 b 69 182 142 32 71 90 l 69 792 b 257 972 71 893 156 953 b 517 961 333 986 444 985 b 658 792 599 933 658 878 l 589 792 b 496 896 589 843 549 878 b 269 904 432 917 336 917 b 139 792 199 890 139 853 l 139 182 b 250 75 139 128 188 92 b 485 76 315 58 419 58 b 589 182 544 93 589 129 l 658 183 b 504 10 658 92 592 35 b 396 -6 474 1 436 -4 l 378 -49 b 507 -136 471 -44 508 -94 b 268 -186 503 -237 322 -264 l 307 -153 b 438 -133 340 -189 438 -183 b 310 -89 438 -83 347 -90 "},"Æ":{"ha":1153,"x_min":0,"x_max":0,"o":"m 635 471 l 1082 471 l 1082 400 l 635 400 b 640 158 635 356 631 186 b 825 71 663 93 760 71 l 1082 71 l 1082 0 l 825 0 l 825 1 b 565 188 707 0 565 56 l 565 400 l 139 400 l 139 0 l 69 0 l 69 785 b 156 928 69 849 104 897 b 365 974 207 958 286 974 l 1082 974 l 1082 904 l 635 904 m 192 869 b 139 785 160 850 139 821 l 139 469 l 565 469 l 565 906 l 363 906 b 192 869 296 906 231 893 "},"È":{"ha":656,"x_min":0,"x_max":0,"o":"m 139 522 l 586 522 l 586 451 l 139 451 b 144 158 139 407 135 186 b 329 71 167 93 264 71 l 329 71 l 586 71 l 586 0 l 329 0 l 329 1 b 69 188 211 0 69 56 l 69 974 b 586 974 242 974 414 974 l 586 904 l 139 904 m 242 1131 l 333 1131 l 375 1035 l 313 1035 l 242 1124 "},"É":{"ha":656,"x_min":0,"x_max":0,"o":"m 425 1124 l 354 1035 l 292 1035 l 333 1131 l 425 1131 m 139 904 l 586 904 l 586 974 b 69 974 414 974 242 974 l 69 188 b 329 1 69 56 211 0 l 329 0 l 586 0 l 586 71 l 329 71 l 329 71 b 144 158 264 71 167 93 b 139 451 135 186 139 407 l 586 451 l 586 522 l 139 522 "},"Ê":{"ha":656,"x_min":0,"x_max":0,"o":"m 139 904 l 586 904 l 586 974 b 69 974 414 974 242 974 l 69 188 b 329 1 69 56 211 0 l 329 0 l 586 0 l 586 71 l 329 71 l 329 71 b 144 158 264 71 167 93 b 139 451 135 186 139 407 l 586 451 l 586 522 l 139 522 m 292 1035 l 221 1035 l 306 1128 l 394 1128 l 476 1035 l 408 1035 l 350 1088 "},"Ë":{"ha":656,"x_min":0,"x_max":0,"o":"m 139 522 l 586 522 l 586 451 l 139 451 b 144 158 139 407 135 186 b 329 71 167 93 264 71 l 329 71 l 586 71 l 586 0 l 329 0 l 329 1 b 69 188 211 0 69 56 l 69 974 b 586 974 242 974 414 974 l 586 904 l 139 904 m 207 1113 l 290 1113 l 290 1042 l 207 1042 m 417 1113 l 500 1113 l 500 1042 l 417 1042 "},"Ì":{"ha":249,"x_min":0,"x_max":0,"o":"m 157 974 l 157 0 l 88 0 b 88 974 88 325 88 649 m 26 1131 l 118 1131 l 160 1035 l 97 1035 l 26 1124 "},"Í":{"ha":249,"x_min":0,"x_max":0,"o":"m 225 1126 l 154 1038 l 92 1038 l 133 1133 l 225 1133 m 88 974 b 88 0 88 649 88 325 l 157 0 l 157 974 "},"Î":{"ha":249,"x_min":0,"x_max":0,"o":"m 88 974 b 88 0 88 649 88 325 l 157 0 l 157 974 m 68 1035 l 0 1035 l 82 1133 l 169 1133 l 250 1035 l 183 1035 l 125 1090 "},"Ï":{"ha":249,"x_min":0,"x_max":0,"o":"m 157 974 l 157 0 l 88 0 b 88 974 88 325 88 649 m -12 1117 l 69 1117 l 69 1036 l -12 1036 m 193 1117 l 275 1117 l 275 1036 l 193 1036 "},"Ñ":{"ha":736,"x_min":0,"x_max":0,"o":"m 658 0 b 585 0 633 0 610 0 l 167 785 l 132 878 l 126 878 l 139 779 l 139 0 l 69 0 l 69 972 b 144 972 94 972 119 972 l 563 188 l 597 96 l 601 96 l 589 194 l 589 972 l 658 972 m 238 1050 b 319 1126 244 1088 282 1124 b 428 1085 371 1132 401 1082 b 460 1115 446 1086 456 1097 l 503 1097 b 429 1032 496 1060 468 1035 b 325 1075 381 1029 357 1076 b 281 1036 304 1074 285 1057 "},"Ò":{"ha":729,"x_min":0,"x_max":0,"o":"m 582 149 b 586 185 585 154 586 167 l 588 797 b 140 797 588 961 140 961 l 142 185 b 146 149 142 167 143 154 b 582 149 188 28 540 28 m 71 797 b 657 797 71 1046 657 1046 l 657 178 b 71 178 657 -75 71 -75 m 279 1133 l 371 1133 l 413 1038 l 350 1038 l 279 1126 "},"Ó":{"ha":729,"x_min":0,"x_max":0,"o":"m 456 1124 l 385 1035 l 322 1035 l 364 1131 l 456 1131 m 582 149 b 146 149 540 28 188 28 b 142 185 143 154 142 167 l 140 797 b 588 797 140 961 588 961 l 586 185 b 582 149 586 167 585 154 m 71 178 b 657 178 71 -75 657 -75 l 657 797 b 71 797 657 1046 71 1046 "},"Ô":{"ha":729,"x_min":0,"x_max":0,"o":"m 582 149 b 146 149 540 28 188 28 b 142 185 143 154 142 167 l 140 797 b 588 797 140 961 588 961 l 586 185 b 582 149 586 167 585 154 m 71 178 b 657 178 71 -75 657 -75 l 657 797 b 71 797 657 1046 71 1046 m 307 1035 l 236 1035 l 321 1128 l 410 1128 l 492 1035 l 424 1035 l 365 1088 "},"Õ":{"ha":729,"x_min":0,"x_max":0,"o":"m 582 149 b 586 185 585 154 586 167 l 588 797 b 140 797 588 961 140 961 l 142 185 b 146 149 142 167 143 154 b 582 149 188 28 540 28 m 71 797 b 657 797 71 1046 657 1046 l 657 178 b 71 178 657 -75 71 -75 m 231 1051 b 313 1128 238 1089 275 1125 b 421 1086 364 1133 394 1083 b 453 1117 439 1088 449 1099 l 496 1099 b 422 1033 489 1061 461 1036 b 318 1076 374 1031 350 1078 b 274 1038 297 1075 278 1058 "},"Ö":{"ha":729,"x_min":0,"x_max":0,"o":"m 582 149 b 586 185 585 154 586 167 l 588 797 b 140 797 588 961 140 961 l 142 185 b 146 149 142 167 143 154 b 582 149 188 28 540 28 m 71 797 b 657 797 71 1046 657 1046 l 657 178 b 71 178 657 -75 71 -75 m 224 1113 l 304 1113 l 304 1039 l 224 1039 m 428 1113 l 510 1113 l 510 1039 l 428 1039 "},"Ø":{"ha":729,"x_min":0,"x_max":0,"o":"m 71 797 b 531 953 71 971 358 1024 l 564 1026 l 636 1026 l 589 921 b 657 797 631 890 657 850 l 657 178 b 189 22 657 -1 360 -54 l 153 -58 l 82 -58 l 132 56 b 71 178 94 86 71 126 m 582 149 b 586 185 585 154 586 167 l 588 797 b 561 858 588 821 578 842 l 217 83 b 582 149 333 33 550 56 m 142 185 b 146 149 142 167 143 154 b 161 121 149 139 154 129 l 506 894 b 140 797 376 949 140 915 "},"Ù":{"ha":732,"x_min":0,"x_max":0,"o":"m 369 61 b 535 92 433 61 497 68 b 589 182 568 111 589 143 l 589 972 l 658 972 l 658 182 b 571 35 658 118 625 68 b 371 -8 524 6 447 -10 l 357 -8 b 157 35 281 -10 204 6 b 69 182 103 68 69 118 l 69 972 l 139 972 l 139 182 b 193 94 139 143 160 114 b 349 61 228 72 288 61 m 272 1131 l 364 1131 l 406 1035 l 343 1035 l 272 1124 "},"Ú":{"ha":732,"x_min":0,"x_max":0,"o":"m 442 1124 l 371 1035 l 308 1035 l 350 1131 l 442 1131 m 349 61 b 193 94 288 61 228 72 b 139 182 160 114 139 143 l 139 972 l 69 972 l 69 182 b 157 35 69 118 103 68 b 357 -8 204 6 281 -10 l 371 -8 b 571 35 447 -10 524 6 b 658 182 625 68 658 118 l 658 972 l 589 972 l 589 182 b 535 92 589 143 568 111 b 369 61 497 68 433 61 l 349 61 "},"Û":{"ha":732,"x_min":0,"x_max":0,"o":"m 349 61 b 193 94 288 61 228 72 b 139 182 160 114 139 143 l 139 972 l 69 972 l 69 182 b 157 35 69 118 103 68 b 357 -8 204 6 281 -10 l 371 -8 b 571 35 447 -10 524 6 b 658 182 625 68 658 118 l 658 972 l 589 972 l 589 182 b 535 92 589 143 568 111 b 369 61 497 68 433 61 l 349 61 m 315 1036 l 247 1036 l 329 1129 l 417 1129 l 496 1036 l 429 1036 l 372 1089 "},"Ü":{"ha":732,"x_min":0,"x_max":0,"o":"m 369 61 b 535 92 433 61 497 68 b 589 182 568 111 589 143 l 589 972 l 658 972 l 658 182 b 571 35 658 118 625 68 b 371 -8 524 6 447 -10 l 357 -8 b 157 35 281 -10 204 6 b 69 182 103 68 69 118 l 69 972 l 139 972 l 139 182 b 193 94 139 143 160 114 b 349 61 228 72 288 61 m 228 1115 l 311 1115 l 311 1036 l 228 1036 m 435 1115 l 517 1115 l 517 1036 l 435 1036 "},"Ý":{"ha":674,"x_min":0,"x_max":0,"o":"m 161 631 b 125 711 136 656 125 674 l 125 972 l 54 972 l 54 713 b 107 586 54 660 68 625 l 304 381 l 304 1 l 374 1 l 374 381 l 571 586 b 624 713 610 625 624 660 l 624 972 l 553 972 l 553 711 b 517 631 553 674 542 656 l 339 444 m 432 1139 l 360 1042 l 294 1042 l 338 1147 l 432 1147 "},"à":{"ha":646,"x_min":0,"x_max":0,"o":"m 478 497 b 461 554 478 518 474 538 b 344 618 438 588 394 608 b 235 618 307 625 274 624 b 107 546 185 610 136 589 l 47 583 b 518 596 129 715 426 722 b 547 492 540 564 547 529 l 547 126 b 615 61 547 75 581 61 l 615 -1 b 490 54 557 -6 511 11 b 288 -18 431 -4 356 -18 b 186 -4 254 -18 219 -12 b 117 368 -3 47 -25 275 b 478 408 203 426 340 435 m 478 344 b 161 318 375 371 240 374 b 206 63 64 250 72 100 b 288 53 231 56 258 53 b 478 169 360 53 478 81 m 213 931 l 303 931 l 343 810 l 282 810 l 213 921 "},"á":{"ha":646,"x_min":0,"x_max":0,"o":"m 478 408 b 117 368 340 435 203 426 b 186 -4 -25 275 -3 47 b 288 -18 219 -12 254 -18 b 490 54 356 -18 431 -4 b 615 -1 511 11 557 -6 l 615 61 b 547 126 581 61 547 75 l 547 492 b 518 596 547 529 540 564 b 47 583 426 722 129 715 l 107 546 b 235 618 136 589 185 610 b 344 618 274 624 307 625 b 461 554 394 608 438 588 b 478 497 474 538 478 518 m 478 169 b 288 53 478 81 360 53 b 206 63 258 53 231 56 b 161 318 72 100 64 250 b 478 344 240 374 375 371 l 478 169 m 392 922 l 322 811 l 261 811 l 301 932 l 392 932 "},"â":{"ha":646,"x_min":0,"x_max":0,"o":"m 478 408 b 117 368 340 435 203 426 b 186 -4 -25 275 -3 47 b 288 -18 219 -12 254 -18 b 490 54 356 -18 431 -4 b 615 -1 511 11 557 -6 l 615 61 b 547 126 581 61 547 75 l 547 492 b 518 596 547 529 540 564 b 47 583 426 722 129 715 l 107 546 b 235 618 136 589 185 610 b 344 618 274 624 307 625 b 461 554 394 608 438 588 b 478 497 474 538 478 518 m 478 169 b 288 53 478 81 360 53 b 206 63 258 53 231 56 b 161 318 72 100 64 250 b 478 344 240 374 375 371 l 478 169 m 249 807 l 179 807 l 263 922 l 351 922 l 433 807 l 365 807 l 307 872 "},"ã":{"ha":646,"x_min":0,"x_max":0,"o":"m 478 497 b 461 554 478 518 474 538 b 344 618 438 588 394 608 b 235 618 307 625 274 624 b 107 546 185 610 136 589 l 47 583 b 518 596 129 715 426 722 b 547 492 540 564 547 529 l 547 126 b 615 61 547 75 581 61 l 615 -1 b 490 54 557 -6 511 11 b 288 -18 431 -4 356 -18 b 186 -4 254 -18 219 -12 b 117 368 -3 47 -25 275 b 478 408 203 426 340 435 m 478 344 b 161 318 375 371 240 374 b 206 63 64 250 72 100 b 288 53 231 56 258 53 b 478 169 360 53 478 81 m 165 824 b 247 900 172 861 210 897 b 356 858 299 906 329 856 b 388 889 374 860 383 871 l 431 871 b 357 806 424 833 396 808 b 253 849 308 803 285 850 b 208 810 232 847 213 831 "},"ä":{"ha":646,"x_min":0,"x_max":0,"o":"m 478 497 b 461 554 478 518 474 538 b 344 618 438 588 394 608 b 235 618 307 625 274 624 b 107 546 185 610 136 589 l 47 583 b 518 596 129 715 426 722 b 547 492 540 564 547 529 l 547 126 b 615 61 547 75 581 61 l 615 -1 b 490 54 557 -6 511 11 b 288 -18 431 -4 356 -18 b 186 -4 254 -18 219 -12 b 117 368 -3 47 -25 275 b 478 408 203 426 340 435 m 478 344 b 161 318 375 371 240 374 b 206 63 64 250 72 100 b 288 53 231 56 258 53 b 478 169 360 53 478 81 m 171 888 l 250 888 l 250 814 l 171 814 m 368 888 l 446 888 l 446 814 l 368 814 "},"å":{"ha":646,"x_min":0,"x_max":0,"o":"m 478 408 b 117 368 340 435 203 426 b 186 -4 -25 275 -3 47 b 288 -18 219 -12 254 -18 b 490 54 356 -18 431 -4 b 615 -1 511 11 557 -6 l 615 61 b 547 126 581 61 547 75 l 547 492 b 518 596 547 529 540 564 b 47 583 426 722 129 715 l 107 546 b 235 618 136 589 185 610 b 344 618 274 624 307 625 b 461 554 394 608 438 588 b 478 497 474 538 478 518 m 478 169 b 288 53 478 81 360 53 b 206 63 258 53 231 56 b 161 318 72 100 64 250 b 478 344 240 374 375 371 l 478 169 m 221 872 b 294 947 221 914 253 947 b 369 872 336 947 369 914 b 294 799 369 831 336 799 b 221 872 253 799 221 831 m 265 871 b 296 842 265 854 278 842 b 326 871 313 842 326 854 b 296 903 326 889 313 903 b 265 871 278 903 265 889 "},"æ":{"ha":1043,"x_min":0,"x_max":0,"o":"m 547 189 b 565 131 547 167 553 149 b 681 68 589 99 632 76 b 790 68 718 61 753 61 b 919 139 842 75 889 96 l 979 103 b 800 -1 939 38 871 10 b 679 -3 758 -8 721 -10 b 518 75 615 7 556 35 b 288 -18 458 8 354 -18 b 186 -4 254 -18 219 -12 b 117 368 -3 47 -25 275 b 478 408 203 426 340 435 l 478 503 b 461 554 476 521 472 539 b 344 618 438 588 394 608 b 235 618 307 625 274 624 b 107 546 185 610 136 589 l 47 583 b 513 586 128 713 425 735 b 638 676 542 632 586 663 b 839 676 703 694 774 694 b 882 293 1019 622 1050 382 b 547 260 785 240 640 260 m 478 344 b 161 318 375 371 240 374 b 206 63 64 250 72 100 b 288 53 231 56 258 53 b 486 133 340 53 442 79 b 478 189 481 150 478 169 m 547 503 l 547 321 b 849 353 607 324 756 308 b 821 610 967 408 944 575 b 656 610 768 624 708 624 b 547 506 596 593 549 558 "},"ç":{"ha":647,"x_min":0,"x_max":0,"o":"m 251 -75 l 285 -6 b 225 4 264 -4 244 0 b 67 182 139 28 67 86 l 67 500 b 225 675 67 594 140 651 b 326 689 257 683 292 689 b 428 675 360 689 394 683 b 586 500 517 650 586 593 l 517 500 b 408 608 517 556 469 592 b 326 619 383 615 354 619 b 243 608 297 619 269 615 b 136 499 192 594 136 561 l 136 182 b 243 71 136 119 190 86 b 408 71 294 57 357 57 l 410 71 b 517 179 469 88 517 124 l 586 179 b 428 6 586 88 517 29 l 428 4 b 335 -8 397 -3 367 -7 l 318 -46 b 442 -124 407 -43 443 -87 b 211 -168 438 -214 264 -237 l 249 -139 b 375 -122 281 -171 375 -167 b 251 -82 375 -78 288 -83 "},"è":{"ha":635,"x_min":0,"x_max":0,"o":"m 140 321 b 440 353 200 324 347 308 b 413 610 558 408 536 575 b 247 610 360 624 300 624 b 140 503 188 593 140 557 m 140 189 b 157 131 140 167 144 149 b 272 68 181 99 224 76 b 382 68 310 61 344 61 b 511 139 433 75 481 96 l 511 139 l 511 139 l 571 103 b 392 -1 531 38 463 10 b 271 -3 350 -8 313 -10 b 100 89 200 8 136 40 b 69 194 78 121 69 156 l 69 503 b 229 676 69 594 139 651 b 431 676 294 694 365 694 b 474 293 611 622 642 382 b 140 260 376 240 233 260 m 235 931 l 325 931 l 365 810 l 304 810 l 235 921 "},"é":{"ha":635,"x_min":0,"x_max":0,"o":"m 140 503 b 247 610 140 557 188 593 b 413 610 300 624 360 624 b 440 353 536 575 558 408 b 140 321 347 308 200 324 l 140 503 m 140 260 b 474 293 233 260 376 240 b 431 676 642 382 611 622 b 229 676 365 694 294 694 b 69 503 139 651 69 594 l 69 194 b 100 89 69 156 78 121 b 271 -3 136 40 200 8 b 392 -1 313 -10 350 -8 b 571 103 463 10 531 38 l 511 139 l 511 139 l 511 139 b 382 68 481 96 433 75 b 272 68 344 61 310 61 b 157 131 224 76 181 99 b 140 189 144 149 140 167 m 410 915 l 340 804 l 279 804 l 319 925 l 410 925 "},"ê":{"ha":635,"x_min":0,"x_max":0,"o":"m 140 503 b 247 610 140 557 188 593 b 413 610 300 624 360 624 b 440 353 536 575 558 408 b 140 321 347 308 200 324 l 140 503 m 140 260 b 474 293 233 260 376 240 b 431 676 642 382 611 622 b 229 676 365 694 294 694 b 69 503 139 651 69 594 l 69 194 b 100 89 69 156 78 121 b 271 -3 136 40 200 8 b 392 -1 313 -10 350 -8 b 571 103 463 10 531 38 l 511 139 l 511 139 l 511 139 b 382 68 481 96 433 75 b 272 68 344 61 310 61 b 157 131 224 76 181 99 b 140 189 144 149 140 167 m 261 808 l 192 808 l 275 924 l 364 924 l 446 808 l 378 808 l 319 874 "},"ë":{"ha":635,"x_min":0,"x_max":0,"o":"m 140 321 b 440 353 200 324 347 308 b 413 610 558 408 536 575 b 247 610 360 624 300 624 b 140 503 188 593 140 557 m 140 189 b 157 131 140 167 144 149 b 272 68 181 99 224 76 b 382 68 310 61 344 61 b 511 139 433 75 481 96 l 511 139 l 511 139 l 571 103 b 392 -1 531 38 463 10 b 271 -3 350 -8 313 -10 b 100 89 200 8 136 40 b 69 194 78 121 69 156 l 69 503 b 229 676 69 594 139 651 b 431 676 294 694 365 694 b 474 293 611 622 642 382 b 140 260 376 240 233 260 m 183 890 l 265 890 l 265 803 l 183 803 m 389 890 l 471 890 l 471 803 l 389 803 "},"ì":{"ha":244,"x_min":0,"x_max":0,"o":"m 88 682 l 158 682 l 158 0 l 88 0 m 29 935 l 119 935 l 160 814 l 99 814 l 29 925 "},"í":{"ha":244,"x_min":0,"x_max":0,"o":"m 88 0 l 158 0 l 158 682 l 88 682 m 213 925 l 143 814 l 82 814 l 122 935 l 213 935 "},"î":{"ha":244,"x_min":0,"x_max":0,"o":"m 88 0 l 158 0 l 158 682 l 88 682 m 64 814 l -6 814 l 78 929 l 167 929 l 249 814 l 181 814 l 122 879 "},"ï":{"ha":244,"x_min":0,"x_max":0,"o":"m 88 682 l 158 682 l 158 0 l 88 0 m -18 958 l 64 958 l 64 871 l -18 871 m 188 958 l 269 958 l 269 871 l 188 871 "},"ñ":{"ha":658,"x_min":0,"x_max":0,"o":"m 518 0 l 518 497 b 329 624 518 579 424 624 b 139 486 235 624 139 581 l 139 0 l 68 0 l 68 683 l 139 683 l 139 619 b 328 692 190 675 263 692 b 589 496 457 693 589 632 l 589 0 m 203 825 b 285 901 210 863 247 899 b 393 860 336 907 367 857 b 425 890 411 861 421 872 l 468 872 b 394 807 461 835 433 810 b 290 850 346 804 322 851 b 246 811 269 849 250 832 "},"ò":{"ha":651,"x_min":0,"x_max":0,"o":"m 422 76 b 515 181 475 94 515 131 l 515 503 l 515 503 b 408 610 515 557 468 593 b 325 621 382 617 354 621 b 242 610 296 621 268 617 b 135 503 182 593 135 558 l 135 181 b 269 65 135 118 197 78 b 422 76 321 57 374 60 m 585 181 b 444 11 585 94 525 39 b 258 -1 385 -8 321 -11 b 65 181 154 17 65 76 l 65 503 b 224 676 65 594 135 653 b 325 690 257 686 290 690 b 426 676 360 690 394 686 b 585 503 515 653 585 594 l 585 503 m 242 925 l 332 925 l 372 804 l 311 804 l 242 915 "},"ó":{"ha":651,"x_min":0,"x_max":0,"o":"m 422 76 b 269 65 374 60 321 57 b 135 181 197 78 135 118 l 135 503 b 242 610 135 558 182 593 b 325 621 268 617 296 621 b 408 610 354 621 382 617 b 515 503 468 593 515 557 l 515 503 l 515 181 b 422 76 515 131 475 94 m 585 503 l 585 503 b 426 676 585 594 515 653 b 325 690 394 686 360 690 b 224 676 290 690 257 686 b 65 503 135 653 65 594 l 65 181 b 258 -1 65 76 154 17 b 444 11 321 -11 385 -8 b 585 181 525 39 585 94 m 426 914 l 357 803 l 296 803 l 336 924 l 426 924 "},"ô":{"ha":651,"x_min":0,"x_max":0,"o":"m 422 76 b 269 65 374 60 321 57 b 135 181 197 78 135 118 l 135 503 b 242 610 135 558 182 593 b 325 621 268 617 296 621 b 408 610 354 621 382 617 b 515 503 468 593 515 557 l 515 503 l 515 181 b 422 76 515 131 475 94 m 585 503 l 585 503 b 426 676 585 594 515 653 b 325 690 394 686 360 690 b 224 676 290 690 257 686 b 65 503 135 653 65 594 l 65 181 b 258 -1 65 76 154 17 b 444 11 321 -11 385 -8 b 585 181 525 39 585 94 m 271 810 l 201 810 l 285 925 l 374 925 l 456 810 l 388 810 l 329 875 "},"õ":{"ha":651,"x_min":0,"x_max":0,"o":"m 422 76 b 515 181 475 94 515 131 l 515 503 l 515 503 b 408 610 515 557 468 593 b 325 621 382 617 354 621 b 242 610 296 621 268 617 b 135 503 182 593 135 558 l 135 181 b 269 65 135 118 197 78 b 422 76 321 57 374 60 m 585 181 b 444 11 585 94 525 39 b 258 -1 385 -8 321 -11 b 65 181 154 17 65 76 l 65 503 b 224 676 65 594 135 653 b 325 690 257 686 290 690 b 426 676 360 690 394 686 b 585 503 515 653 585 594 l 585 503 m 200 825 b 282 901 207 863 244 899 b 390 860 333 907 364 857 b 422 890 408 861 418 872 l 465 872 b 392 807 458 835 431 810 b 288 850 343 804 319 851 b 243 811 267 849 247 832 "},"ö":{"ha":651,"x_min":0,"x_max":0,"o":"m 422 76 b 515 181 475 94 515 131 l 515 503 l 515 503 b 408 610 515 557 468 593 b 325 621 382 617 354 621 b 242 610 296 621 268 617 b 135 503 182 593 135 558 l 135 181 b 269 65 135 118 197 78 b 422 76 321 57 374 60 m 585 181 b 444 11 585 94 525 39 b 258 -1 385 -8 321 -11 b 65 181 154 17 65 76 l 65 503 b 224 676 65 594 135 653 b 325 690 257 686 290 690 b 426 676 360 690 394 686 b 585 503 515 653 585 594 l 585 503 m 185 893 l 267 893 l 267 806 l 185 806 m 390 893 l 472 893 l 472 806 l 390 806 "},"ø":{"ha":651,"x_min":0,"x_max":0,"o":"m 585 181 b 444 11 585 94 525 39 b 258 -1 385 -8 321 -11 b 182 21 232 3 206 10 l 147 -43 l 76 -43 l 129 51 b 65 181 90 82 65 125 l 65 503 b 224 676 65 594 135 653 b 325 690 257 686 290 690 b 426 676 360 690 394 686 b 465 663 440 672 453 668 l 496 718 l 569 718 l 521 631 b 585 503 560 600 585 557 m 422 76 b 515 181 475 94 515 131 l 515 503 b 486 568 515 529 504 550 l 215 81 b 269 65 232 74 250 68 b 422 76 321 57 374 60 m 408 610 b 325 621 382 617 354 621 b 242 610 296 621 268 617 b 135 503 182 593 135 558 l 135 181 b 163 114 135 154 144 132 l 432 601 "},"ù":{"ha":656,"x_min":0,"x_max":0,"o":"m 138 681 l 138 188 b 328 60 138 104 233 60 b 518 197 422 60 518 104 l 518 681 l 588 681 l 588 0 l 518 0 l 518 65 b 329 -8 467 8 394 -7 b 68 188 200 -8 68 51 l 68 681 m 243 932 l 333 932 l 374 811 l 313 811 l 243 922 "},"ú":{"ha":656,"x_min":0,"x_max":0,"o":"m 138 681 l 138 188 b 328 60 138 104 233 60 b 518 197 422 60 518 104 l 518 681 l 588 681 l 588 0 l 518 0 l 518 65 b 329 -8 467 8 394 -7 b 68 188 200 -8 68 51 l 68 681 m 413 919 l 343 808 l 282 808 l 322 929 l 413 929 "},"û":{"ha":656,"x_min":0,"x_max":0,"o":"m 138 681 l 138 188 b 328 60 138 104 233 60 b 518 197 422 60 518 104 l 518 681 l 588 681 l 588 0 l 518 0 l 518 65 b 329 -8 467 8 394 -7 b 68 188 200 -8 68 51 l 68 681 m 275 808 l 206 808 l 289 924 l 378 924 l 460 808 l 392 808 l 333 874 "},"ü":{"ha":656,"x_min":0,"x_max":0,"o":"m 138 681 l 138 188 b 328 60 138 104 233 60 b 518 197 422 60 518 104 l 518 681 l 588 681 l 588 0 l 518 0 l 518 65 b 329 -8 467 8 394 -7 b 68 188 200 -8 68 51 l 68 681 m 182 896 l 264 896 l 264 808 l 182 808 m 388 896 l 469 896 l 469 808 l 388 808 "},"ý":{"ha":654,"x_min":0,"x_max":0,"o":"m 586 -107 b 429 -283 586 -203 514 -261 b 328 -297 396 -293 361 -297 b 86 -185 240 -297 131 -268 l 86 -185 l 146 -153 b 328 -228 185 -210 263 -228 b 410 -218 356 -228 385 -225 b 517 -107 464 -203 515 -167 l 517 -94 l 517 -83 l 517 53 b 156 31 422 -35 256 -29 b 67 179 101 63 67 114 l 67 681 l 138 681 l 138 181 b 192 90 138 139 157 111 b 326 57 229 68 278 58 l 331 58 b 499 122 400 58 467 79 b 517 185 513 140 517 161 l 517 681 l 586 681 l 586 -94 m 422 919 l 353 808 l 292 808 l 332 929 l 422 929 "},"ÿ":{"ha":654,"x_min":0,"x_max":0,"o":"m 586 -107 b 429 -283 586 -203 514 -261 b 328 -297 396 -293 361 -297 b 86 -185 240 -297 131 -268 l 86 -185 l 146 -153 b 328 -228 185 -210 263 -228 b 410 -218 356 -228 385 -225 b 517 -107 464 -203 515 -167 l 517 -94 l 517 -83 l 517 53 b 156 31 422 -35 256 -29 b 67 179 101 63 67 114 l 67 681 l 138 681 l 138 181 b 192 90 138 139 157 111 b 326 57 229 68 278 58 l 331 58 b 499 122 400 58 467 79 b 517 185 513 140 517 161 l 517 681 l 586 681 l 586 -94 m 194 903 l 276 903 l 276 815 l 194 815 m 400 903 l 482 903 l 482 815 l 400 815 "},"’":{"ha":274,"x_min":0,"x_max":0,"o":"m 111 974 l 194 974 l 194 881 b 119 807 194 817 158 803 l 119 838 b 142 881 135 836 147 860 l 111 881 "},"‘":{"ha":282,"x_min":0,"x_max":0,"o":"m 194 806 l 111 806 l 111 899 b 186 972 111 963 147 976 l 186 942 b 164 899 171 943 158 919 l 194 899 "},"“":{"ha":435,"x_min":0,"x_max":0,"o":"m 194 806 l 111 806 l 111 899 b 186 972 111 963 147 976 l 186 942 b 164 899 171 943 158 919 l 194 899 m 342 806 l 258 806 l 258 899 b 333 972 258 963 294 976 l 333 942 b 311 899 318 943 306 919 l 342 899 "},"”":{"ha":438,"x_min":0,"x_max":0,"o":"m 258 974 l 342 974 l 342 881 b 267 807 342 817 306 803 l 267 838 b 289 881 282 836 294 860 l 258 881 m 111 974 l 194 974 l 194 881 b 119 807 194 817 158 803 l 119 838 b 142 881 135 836 147 860 l 111 881 "},"i":{"ha":244,"x_min":0,"x_max":0,"o":"m 83 975 l 163 975 l 163 851 l 83 851 m 88 682 l 158 682 l 158 0 l 88 0 "},"&":{"ha":833,"x_min":0,"x_max":0,"o":"m 675 721 l 608 721 l 608 796 b 385 917 608 876 496 917 b 161 796 272 917 161 876 b 161 644 161 749 161 694 b 385 524 161 557 272 524 l 797 524 l 797 463 l 697 463 l 697 178 b 385 -11 697 51 532 -11 b 72 178 238 -11 72 51 b 72 342 72 226 72 292 b 231 492 72 431 150 479 b 90 644 142 507 90 572 b 90 796 90 694 90 749 b 385 985 90 922 238 985 b 675 796 532 985 675 922 m 385 463 b 142 342 308 463 142 446 b 142 178 142 292 142 226 b 385 58 142 99 272 58 b 628 178 496 58 628 99 l 628 463 "},"£":{"ha":854,"x_min":0,"x_max":0,"o":"m 64 479 l 192 479 l 192 785 b 757 788 192 1043 757 1024 l 757 732 l 692 732 l 692 788 b 263 785 692 926 274 956 b 261 517 258 715 261 554 l 261 479 l 553 479 l 553 417 l 261 417 l 261 67 l 536 67 b 700 171 608 67 700 74 l 700 224 l 769 224 l 769 174 b 536 0 769 29 651 0 l 56 0 l 56 67 l 192 67 l 192 417 l 64 417 "}}}
